Coordinates
version=1
nRows=12
nColumns=24
inDegrees=yes

Units are S.I. units (second, meters, Newtons, ...)
Angles are in degrees.

endheader
time	pelvis_tilt	pelvis_list	pelvis_rotation	pelvis_tx	pelvis_ty	pelvis_tz	hip_flexion_r	hip_adduction_r	hip_rotation_r	knee_angle_r	ankle_angle_r	subtalar_angle_r	mtp_angle_r	hip_flexion_l	hip_adduction_l	hip_rotation_l	knee_angle_l	ankle_angle_l	subtalar_angle_l	mtp_angle_l	lumbar_extension	lumbar_bending	lumbar_rotation
      4.45500000	    -10.52300537	      4.94589381	     -2.64736607	     -0.98938238	     -0.01929844	     -0.75774768	     14.38220159	     -6.13839762	     -4.47496370	    -57.75834887	    -27.06735773	    -12.67937407	      6.03912789	     27.19199946	      5.73816155	    -12.43552282	    -23.40603366	      1.95084839	     -9.68153019	      5.00523909	      8.97711204	     -5.90003075	      2.72683194
      4.46000000	    -10.51513671	      4.98969408	     -2.56100309	     -0.98409533	     -0.01868318	     -0.75823269	     15.27735090	     -6.27313468	     -4.52085260	    -58.99677558	    -26.84501826	    -13.41489052	      5.89140569	     26.68107015	      5.91134575	    -12.35353715	    -23.13313390	      2.18618827	     -9.64514855	      5.02597845	      8.91985932	     -5.96065117	      2.46666962
      4.46500000	    -10.70404416	      4.91445975	     -2.50815208	     -0.97908802	     -0.01824221	     -0.75860878	     16.43106282	     -6.21040408	     -4.51924796	    -60.21507866	    -26.48459656	    -14.29091513	      5.29600123	     26.43963059	      5.92674490	    -12.22168153	    -22.94743124	      2.38655230	     -9.70545749	      4.90742574	      9.03226713	     -5.88029769	      2.26189064
      4.47000000	    -10.86547605	      4.88674692	     -2.41787793	     -0.97400131	     -0.01777667	     -0.75904472	     17.53889801	     -6.22586336	     -4.53944646	    -61.38929425	    -25.77124153	    -14.81833203	      4.39162035	     26.13481805	      6.02067431	    -12.00928848	    -22.71483837	      2.65284593	     -9.65507368	      4.66937515	      9.12980813	     -5.85753514	      2.02802242
      4.47500000	    -10.92566327	      4.84390680	     -2.31775498	     -0.96891547	     -0.01718117	     -0.75953561	     18.49469838	     -6.24863242	     -4.60243339	    -62.43026705	    -24.92295519	    -15.32641440	      3.91507579	     25.71377773	      6.10601408	    -11.89051795	    -22.45917498	      2.87428871	     -9.65245055	      4.47644914	      9.11298909	     -5.81402388	      1.77729176
      4.48000000	    -11.00649071	      4.77912756	     -2.21746113	     -0.96383491	     -0.01657369	     -0.76001709	     19.45724056	     -6.23571528	     -4.63729565	    -63.37747466	    -23.96420989	    -15.71103475	      3.60306497	     25.29773800	      6.17171331	    -11.70184021	    -22.17841294	      3.10399821	     -9.61462975	      4.31538641	      9.12157655	     -5.74565301	      1.53138115
      4.48500000	    -11.06866304	      4.70817817	     -2.13047155	     -0.95875765	     -0.01591695	     -0.76048190	     20.38592661	     -6.21076248	     -4.66191960	    -64.23035067	    -22.93097837	    -16.04869746	      3.38704236	     24.84656812	      6.22699903	    -11.52324688	    -21.86794983	      3.31077157	     -9.58828379	      4.15867628	      9.11389674	     -5.66507172	      1.30567125
      4.49000000	    -11.04285299	      4.61216759	     -2.05965674	     -0.95364175	     -0.01509113	     -0.76087403	     21.18098641	     -6.14612654	     -4.68771296	    -64.93593540	    -21.97193059	    -16.49553647	      3.48325132	     24.26692012	      6.24839485	    -11.33687240	    -21.50552180	      3.49606330	     -9.49442555	      4.15528163	      9.01892805	     -5.56336483	      1.10548638
      4.49500000	    -11.18108272	      4.53745757	     -1.97823284	     -0.94860397	     -0.01451759	     -0.76137141	     22.18315365	     -6.10292137	     -4.65802413	    -65.65487107	    -20.73442565	    -16.52390127	      3.28354827	     23.89049717	      6.29814410	    -11.16213256	    -21.16833332	      3.66723940	     -9.53711470	      3.91513681	      9.09567335	     -5.46139842	      0.88474430
      4.50000000	    -11.17102994	      4.46378775	     -1.88563670	     -0.94349438	     -0.01373617	     -0.76181981	     22.97868715	     -6.08097084	     -4.70422518	    -66.22426155	    -19.69121743	    -16.81720900	      3.36530614	     23.31854050	      6.34519394	    -11.03967510	    -20.77662852	      3.85238871	     -9.43340501	      3.87102276	      9.02146414	     -5.37772228	      0.62882150
      4.50500000	    -11.20656836	      4.36864475	     -1.81936942	     -0.93841998	     -0.01300159	     -0.76228150	     23.81567966	     -6.01227458	     -4.67845482	    -66.72661883	    -18.50791945	    -16.82649739	      3.38767512	     22.80012954	      6.36558662	    -10.89778676	    -20.38880431	      3.99537120	     -9.42218332	      3.69693856	      8.99755088	     -5.25118714	      0.45413357
      4.51000000	    -11.19913816	      4.29434461	     -1.73715233	     -0.93330716	     -0.01221099	     -0.76269908	     24.58309461	     -5.97177672	     -4.68144032	    -67.13117933	    -17.46342884	    -16.96217082	      3.48833784	     22.21192062	      6.40602202	    -10.76556991	    -19.96130321	      4.13696764	     -9.32957367	      3.59768962	      8.93092267	     -5.15999942	      0.23125107
